<svg width="36" height="36" viewBox="0 0 36 36" fill="none" xmlns="http://www.w3.org/2000/svg">
<rect width="36" height="36" rx="18" fill="black"/>
<path fill-rule="evenodd" clip-rule="evenodd" d="M18 9.75C18.4142 9.75 18.75 10.0858 18.75 10.5V17.25H25.5C25.9142 17.25 26.25 17.5858 26.25 18C26.25 18.4142 25.9142 18.75 25.5 18.75H18.75V25.5C18.75 25.9142 18.4142 26.25 18 26.25C17.5858 26.25 17.25 25.9142 17.25 25.5V18.75H10.5C10.0858 18.75 9.75 18.4142 9.75 18C9.75 17.5858 10.0858 17.25 10.5 17.25H17.25V10.5C17.25 10.0858 17.5858 9.75 18 9.75Z" fill="white" stroke="white" stroke-linecap="round" stroke-linejoin="round"/>
</svg>
